<svg xmlns="http://www.w3.org/2000/svg" viewBox="0 0 1200 320" width="1200" height="320" shape-rendering="crispEdges" role="img" aria-label="quark — vector embeddings for quantum circuits">
<defs><filter id="rough" x="-20%" y="-60%" width="140%" height="220%"><feTurbulence type="fractalNoise" baseFrequency="0.05" numOctaves="2" seed="4" result="n"/><feDisplacementMap in="SourceGraphic" in2="n" scale="2.2"/></filter></defs>
<rect width="1200" height="320" fill="#f1e7d0"/>
<rect x="18" y="18" width="16" height="6" fill="#2b2722"/>
<rect x="18" y="296" width="16" height="6" fill="#2b2722"/>
<rect x="46" y="18" width="16" height="6" fill="#2b2722"/>
<rect x="46" y="296" width="16" height="6" fill="#2b2722"/>
<rect x="74" y="18" width="16" height="6" fill="#2b2722"/>
<rect x="74" y="296" width="16" height="6" fill="#2b2722"/>
<rect x="102" y="18" width="16" height="6" fill="#2b2722"/>
<rect x="102" y="296" width="16" height="6" fill="#2b2722"/>
<rect x="130" y="18" width="16" height="6" fill="#2b2722"/>
<rect x="130" y="296" width="16" height="6" fill="#2b2722"/>
<rect x="158" y="18" width="16" height="6" fill="#2b2722"/>
<rect x="158" y="296" width="16" height="6" fill="#2b2722"/>
<rect x="186" y="18" width="16" height="6" fill="#2b2722"/>
<rect x="186" y="296" width="16" height="6" fill="#2b2722"/>
<rect x="214" y="18" width="16" height="6" fill="#2b2722"/>
<rect x="214" y="296" width="16" height="6" fill="#2b2722"/>
<rect x="242" y="18" width="16" height="6" fill="#2b2722"/>
<rect x="242" y="296" width="16" height="6" fill="#2b2722"/>
<rect x="270" y="18" width="16" height="6" fill="#2b2722"/>
<rect x="270" y="296" width="16" height="6" fill="#2b2722"/>
<rect x="298" y="18" width="16" height="6" fill="#2b2722"/>
<rect x="298" y="296" width="16" height="6" fill="#2b2722"/>
<rect x="326" y="18" width="16" height="6" fill="#2b2722"/>
<rect x="326" y="296" width="16" height="6" fill="#2b2722"/>
<rect x="354" y="18" width="16" height="6" fill="#2b2722"/>
<rect x="354" y="296" width="16" height="6" fill="#2b2722"/>
<rect x="382" y="18" width="16" height="6" fill="#2b2722"/>
<rect x="382" y="296" width="16" height="6" fill="#2b2722"/>
<rect x="410" y="18" width="16" height="6" fill="#2b2722"/>
<rect x="410" y="296" width="16" height="6" fill="#2b2722"/>
<rect x="438" y="18" width="16" height="6" fill="#2b2722"/>
<rect x="438" y="296" width="16" height="6" fill="#2b2722"/>
<rect x="466" y="18" width="16" height="6" fill="#2b2722"/>
<rect x="466" y="296" width="16" height="6" fill="#2b2722"/>
<rect x="494" y="18" width="16" height="6" fill="#2b2722"/>
<rect x="494" y="296" width="16" height="6" fill="#2b2722"/>
<rect x="522" y="18" width="16" height="6" fill="#2b2722"/>
<rect x="522" y="296" width="16" height="6" fill="#2b2722"/>
<rect x="550" y="18" width="16" height="6" fill="#2b2722"/>
<rect x="550" y="296" width="16" height="6" fill="#2b2722"/>
<rect x="578" y="18" width="16" height="6" fill="#2b2722"/>
<rect x="578" y="296" width="16" height="6" fill="#2b2722"/>
<rect x="606" y="18" width="16" height="6" fill="#2b2722"/>
<rect x="606" y="296" width="16" height="6" fill="#2b2722"/>
<rect x="634" y="18" width="16" height="6" fill="#2b2722"/>
<rect x="634" y="296" width="16" height="6" fill="#2b2722"/>
<rect x="662" y="18" width="16" height="6" fill="#2b2722"/>
<rect x="662" y="296" width="16" height="6" fill="#2b2722"/>
<rect x="690" y="18" width="16" height="6" fill="#2b2722"/>
<rect x="690" y="296" width="16" height="6" fill="#2b2722"/>
<rect x="718" y="18" width="16" height="6" fill="#2b2722"/>
<rect x="718" y="296" width="16" height="6" fill="#2b2722"/>
<rect x="746" y="18" width="16" height="6" fill="#2b2722"/>
<rect x="746" y="296" width="16" height="6" fill="#2b2722"/>
<rect x="774" y="18" width="16" height="6" fill="#2b2722"/>
<rect x="774" y="296" width="16" height="6" fill="#2b2722"/>
<rect x="802" y="18" width="16" height="6" fill="#2b2722"/>
<rect x="802" y="296" width="16" height="6" fill="#2b2722"/>
<rect x="830" y="18" width="16" height="6" fill="#2b2722"/>
<rect x="830" y="296" width="16" height="6" fill="#2b2722"/>
<rect x="858" y="18" width="16" height="6" fill="#2b2722"/>
<rect x="858" y="296" width="16" height="6" fill="#2b2722"/>
<rect x="886" y="18" width="16" height="6" fill="#2b2722"/>
<rect x="886" y="296" width="16" height="6" fill="#2b2722"/>
<rect x="914" y="18" width="16" height="6" fill="#2b2722"/>
<rect x="914" y="296" width="16" height="6" fill="#2b2722"/>
<rect x="942" y="18" width="16" height="6" fill="#2b2722"/>
<rect x="942" y="296" width="16" height="6" fill="#2b2722"/>
<rect x="970" y="18" width="16" height="6" fill="#2b2722"/>
<rect x="970" y="296" width="16" height="6" fill="#2b2722"/>
<rect x="998" y="18" width="16" height="6" fill="#2b2722"/>
<rect x="998" y="296" width="16" height="6" fill="#2b2722"/>
<rect x="1026" y="18" width="16" height="6" fill="#2b2722"/>
<rect x="1026" y="296" width="16" height="6" fill="#2b2722"/>
<rect x="1054" y="18" width="16" height="6" fill="#2b2722"/>
<rect x="1054" y="296" width="16" height="6" fill="#2b2722"/>
<rect x="1082" y="18" width="16" height="6" fill="#2b2722"/>
<rect x="1082" y="296" width="16" height="6" fill="#2b2722"/>
<rect x="1110" y="18" width="16" height="6" fill="#2b2722"/>
<rect x="1110" y="296" width="16" height="6" fill="#2b2722"/>
<rect x="1138" y="18" width="16" height="6" fill="#2b2722"/>
<rect x="1138" y="296" width="16" height="6" fill="#2b2722"/>
<rect x="1166" y="18" width="16" height="6" fill="#2b2722"/>
<rect x="1166" y="296" width="16" height="6" fill="#2b2722"/>
<rect x="18" y="18" width="6" height="16" fill="#2b2722"/>
<rect x="1176" y="18" width="6" height="16" fill="#2b2722"/>
<rect x="18" y="46" width="6" height="16" fill="#2b2722"/>
<rect x="1176" y="46" width="6" height="16" fill="#2b2722"/>
<rect x="18" y="74" width="6" height="16" fill="#2b2722"/>
<rect x="1176" y="74" width="6" height="16" fill="#2b2722"/>
<rect x="18" y="102" width="6" height="16" fill="#2b2722"/>
<rect x="1176" y="102" width="6" height="16" fill="#2b2722"/>
<rect x="18" y="130" width="6" height="16" fill="#2b2722"/>
<rect x="1176" y="130" width="6" height="16" fill="#2b2722"/>
<rect x="18" y="158" width="6" height="16" fill="#2b2722"/>
<rect x="1176" y="158" width="6" height="16" fill="#2b2722"/>
<rect x="18" y="186" width="6" height="16" fill="#2b2722"/>
<rect x="1176" y="186" width="6" height="16" fill="#2b2722"/>
<rect x="18" y="214" width="6" height="16" fill="#2b2722"/>
<rect x="1176" y="214" width="6" height="16" fill="#2b2722"/>
<rect x="18" y="242" width="6" height="16" fill="#2b2722"/>
<rect x="1176" y="242" width="6" height="16" fill="#2b2722"/>
<rect x="18" y="270" width="6" height="16" fill="#2b2722"/>
<rect x="1176" y="270" width="6" height="16" fill="#2b2722"/>
<rect x="18" y="298" width="6" height="16" fill="#2b2722"/>
<rect x="1176" y="298" width="6" height="16" fill="#2b2722"/>
<rect x="100" y="103" width="13" height="13" fill="#c7a36a"/>
<rect x="113" y="103" width="13" height="13" fill="#c7a36a"/>
<rect x="126" y="103" width="13" height="13" fill="#c7a36a"/>
<rect x="87" y="116" width="13" height="13" fill="#c7a36a"/>
<rect x="139" y="116" width="13" height="13" fill="#c7a36a"/>
<rect x="87" y="129" width="13" height="13" fill="#c7a36a"/>
<rect x="139" y="129" width="13" height="13" fill="#c7a36a"/>
<rect x="87" y="142" width="13" height="13" fill="#c7a36a"/>
<rect x="139" y="142" width="13" height="13" fill="#c7a36a"/>
<rect x="87" y="155" width="13" height="13" fill="#c7a36a"/>
<rect x="113" y="155" width="13" height="13" fill="#c7a36a"/>
<rect x="139" y="155" width="13" height="13" fill="#c7a36a"/>
<rect x="87" y="168" width="13" height="13" fill="#c7a36a"/>
<rect x="126" y="168" width="13" height="13" fill="#c7a36a"/>
<rect x="100" y="181" width="13" height="13" fill="#c7a36a"/>
<rect x="113" y="181" width="13" height="13" fill="#c7a36a"/>
<rect x="139" y="181" width="13" height="13" fill="#c7a36a"/>
<rect x="165" y="103" width="13" height="13" fill="#c7a36a"/>
<rect x="217" y="103" width="13" height="13" fill="#c7a36a"/>
<rect x="165" y="116" width="13" height="13" fill="#c7a36a"/>
<rect x="217" y="116" width="13" height="13" fill="#c7a36a"/>
<rect x="165" y="129" width="13" height="13" fill="#c7a36a"/>
<rect x="217" y="129" width="13" height="13" fill="#c7a36a"/>
<rect x="165" y="142" width="13" height="13" fill="#c7a36a"/>
<rect x="217" y="142" width="13" height="13" fill="#c7a36a"/>
<rect x="165" y="155" width="13" height="13" fill="#c7a36a"/>
<rect x="217" y="155" width="13" height="13" fill="#c7a36a"/>
<rect x="165" y="168" width="13" height="13" fill="#c7a36a"/>
<rect x="217" y="168" width="13" height="13" fill="#c7a36a"/>
<rect x="178" y="181" width="13" height="13" fill="#c7a36a"/>
<rect x="191" y="181" width="13" height="13" fill="#c7a36a"/>
<rect x="204" y="181" width="13" height="13" fill="#c7a36a"/>
<rect x="256" y="103" width="13" height="13" fill="#c7a36a"/>
<rect x="269" y="103" width="13" height="13" fill="#c7a36a"/>
<rect x="282" y="103" width="13" height="13" fill="#c7a36a"/>
<rect x="243" y="116" width="13" height="13" fill="#c7a36a"/>
<rect x="295" y="116" width="13" height="13" fill="#c7a36a"/>
<rect x="243" y="129" width="13" height="13" fill="#c7a36a"/>
<rect x="295" y="129" width="13" height="13" fill="#c7a36a"/>
<rect x="243" y="142" width="13" height="13" fill="#c7a36a"/>
<rect x="256" y="142" width="13" height="13" fill="#c7a36a"/>
<rect x="269" y="142" width="13" height="13" fill="#c7a36a"/>
<rect x="282" y="142" width="13" height="13" fill="#c7a36a"/>
<rect x="295" y="142" width="13" height="13" fill="#c7a36a"/>
<rect x="243" y="155" width="13" height="13" fill="#c7a36a"/>
<rect x="295" y="155" width="13" height="13" fill="#c7a36a"/>
<rect x="243" y="168" width="13" height="13" fill="#c7a36a"/>
<rect x="295" y="168" width="13" height="13" fill="#c7a36a"/>
<rect x="243" y="181" width="13" height="13" fill="#c7a36a"/>
<rect x="295" y="181" width="13" height="13" fill="#c7a36a"/>
<rect x="321" y="103" width="13" height="13" fill="#c7a36a"/>
<rect x="334" y="103" width="13" height="13" fill="#c7a36a"/>
<rect x="347" y="103" width="13" height="13" fill="#c7a36a"/>
<rect x="360" y="103" width="13" height="13" fill="#c7a36a"/>
<rect x="321" y="116" width="13" height="13" fill="#c7a36a"/>
<rect x="373" y="116" width="13" height="13" fill="#c7a36a"/>
<rect x="321" y="129" width="13" height="13" fill="#c7a36a"/>
<rect x="373" y="129" width="13" height="13" fill="#c7a36a"/>
<rect x="321" y="142" width="13" height="13" fill="#c7a36a"/>
<rect x="334" y="142" width="13" height="13" fill="#c7a36a"/>
<rect x="347" y="142" width="13" height="13" fill="#c7a36a"/>
<rect x="360" y="142" width="13" height="13" fill="#c7a36a"/>
<rect x="321" y="155" width="13" height="13" fill="#c7a36a"/>
<rect x="347" y="155" width="13" height="13" fill="#c7a36a"/>
<rect x="321" y="168" width="13" height="13" fill="#c7a36a"/>
<rect x="360" y="168" width="13" height="13" fill="#c7a36a"/>
<rect x="321" y="181" width="13" height="13" fill="#c7a36a"/>
<rect x="373" y="181" width="13" height="13" fill="#c7a36a"/>
<rect x="399" y="103" width="13" height="13" fill="#c7a36a"/>
<rect x="451" y="103" width="13" height="13" fill="#c7a36a"/>
<rect x="399" y="116" width="13" height="13" fill="#c7a36a"/>
<rect x="438" y="116" width="13" height="13" fill="#c7a36a"/>
<rect x="399" y="129" width="13" height="13" fill="#c7a36a"/>
<rect x="425" y="129" width="13" height="13" fill="#c7a36a"/>
<rect x="399" y="142" width="13" height="13" fill="#c7a36a"/>
<rect x="412" y="142" width="13" height="13" fill="#c7a36a"/>
<rect x="399" y="155" width="13" height="13" fill="#c7a36a"/>
<rect x="425" y="155" width="13" height="13" fill="#c7a36a"/>
<rect x="399" y="168" width="13" height="13" fill="#c7a36a"/>
<rect x="438" y="168" width="13" height="13" fill="#c7a36a"/>
<rect x="399" y="181" width="13" height="13" fill="#c7a36a"/>
<rect x="451" y="181" width="13" height="13" fill="#c7a36a"/>
<rect x="95" y="98" width="13" height="13" fill="#2b2722"/>
<rect x="108" y="98" width="13" height="13" fill="#2b2722"/>
<rect x="121" y="98" width="13" height="13" fill="#2b2722"/>
<rect x="82" y="111" width="13" height="13" fill="#2b2722"/>
<rect x="134" y="111" width="13" height="13" fill="#2b2722"/>
<rect x="82" y="124" width="13" height="13" fill="#2b2722"/>
<rect x="134" y="124" width="13" height="13" fill="#2b2722"/>
<rect x="82" y="137" width="13" height="13" fill="#2b2722"/>
<rect x="134" y="137" width="13" height="13" fill="#2b2722"/>
<rect x="82" y="150" width="13" height="13" fill="#2b2722"/>
<rect x="108" y="150" width="13" height="13" fill="#2b2722"/>
<rect x="134" y="150" width="13" height="13" fill="#2b2722"/>
<rect x="82" y="163" width="13" height="13" fill="#2b2722"/>
<rect x="121" y="163" width="13" height="13" fill="#2b2722"/>
<rect x="95" y="176" width="13" height="13" fill="#2b2722"/>
<rect x="108" y="176" width="13" height="13" fill="#2b2722"/>
<rect x="134" y="176" width="13" height="13" fill="#2b2722"/>
<rect x="160" y="98" width="13" height="13" fill="#2b2722"/>
<rect x="212" y="98" width="13" height="13" fill="#2b2722"/>
<rect x="160" y="111" width="13" height="13" fill="#2b2722"/>
<rect x="212" y="111" width="13" height="13" fill="#2b2722"/>
<rect x="160" y="124" width="13" height="13" fill="#2b2722"/>
<rect x="212" y="124" width="13" height="13" fill="#2b2722"/>
<rect x="160" y="137" width="13" height="13" fill="#2b2722"/>
<rect x="212" y="137" width="13" height="13" fill="#2b2722"/>
<rect x="160" y="150" width="13" height="13" fill="#2b2722"/>
<rect x="212" y="150" width="13" height="13" fill="#2b2722"/>
<rect x="160" y="163" width="13" height="13" fill="#2b2722"/>
<rect x="212" y="163" width="13" height="13" fill="#2b2722"/>
<rect x="173" y="176" width="13" height="13" fill="#2b2722"/>
<rect x="186" y="176" width="13" height="13" fill="#2b2722"/>
<rect x="199" y="176" width="13" height="13" fill="#2b2722"/>
<rect x="251" y="98" width="13" height="13" fill="#2b2722"/>
<rect x="264" y="98" width="13" height="13" fill="#2b2722"/>
<rect x="277" y="98" width="13" height="13" fill="#2b2722"/>
<rect x="238" y="111" width="13" height="13" fill="#2b2722"/>
<rect x="290" y="111" width="13" height="13" fill="#2b2722"/>
<rect x="238" y="124" width="13" height="13" fill="#2b2722"/>
<rect x="290" y="124" width="13" height="13" fill="#2b2722"/>
<rect x="238" y="137" width="13" height="13" fill="#2b2722"/>
<rect x="251" y="137" width="13" height="13" fill="#2b2722"/>
<rect x="264" y="137" width="13" height="13" fill="#2b2722"/>
<rect x="277" y="137" width="13" height="13" fill="#2b2722"/>
<rect x="290" y="137" width="13" height="13" fill="#2b2722"/>
<rect x="238" y="150" width="13" height="13" fill="#2b2722"/>
<rect x="290" y="150" width="13" height="13" fill="#2b2722"/>
<rect x="238" y="163" width="13" height="13" fill="#2b2722"/>
<rect x="290" y="163" width="13" height="13" fill="#2b2722"/>
<rect x="238" y="176" width="13" height="13" fill="#2b2722"/>
<rect x="290" y="176" width="13" height="13" fill="#2b2722"/>
<rect x="316" y="98" width="13" height="13" fill="#2b2722"/>
<rect x="329" y="98" width="13" height="13" fill="#2b2722"/>
<rect x="342" y="98" width="13" height="13" fill="#2b2722"/>
<rect x="355" y="98" width="13" height="13" fill="#2b2722"/>
<rect x="316" y="111" width="13" height="13" fill="#2b2722"/>
<rect x="368" y="111" width="13" height="13" fill="#2b2722"/>
<rect x="316" y="124" width="13" height="13" fill="#2b2722"/>
<rect x="368" y="124" width="13" height="13" fill="#2b2722"/>
<rect x="316" y="137" width="13" height="13" fill="#2b2722"/>
<rect x="329" y="137" width="13" height="13" fill="#2b2722"/>
<rect x="342" y="137" width="13" height="13" fill="#2b2722"/>
<rect x="355" y="137" width="13" height="13" fill="#2b2722"/>
<rect x="316" y="150" width="13" height="13" fill="#2b2722"/>
<rect x="342" y="150" width="13" height="13" fill="#2b2722"/>
<rect x="316" y="163" width="13" height="13" fill="#2b2722"/>
<rect x="355" y="163" width="13" height="13" fill="#2b2722"/>
<rect x="316" y="176" width="13" height="13" fill="#2b2722"/>
<rect x="368" y="176" width="13" height="13" fill="#2b2722"/>
<rect x="394" y="98" width="13" height="13" fill="#2b2722"/>
<rect x="446" y="98" width="13" height="13" fill="#2b2722"/>
<rect x="394" y="111" width="13" height="13" fill="#2b2722"/>
<rect x="433" y="111" width="13" height="13" fill="#2b2722"/>
<rect x="394" y="124" width="13" height="13" fill="#2b2722"/>
<rect x="420" y="124" width="13" height="13" fill="#2b2722"/>
<rect x="394" y="137" width="13" height="13" fill="#2b2722"/>
<rect x="407" y="137" width="13" height="13" fill="#2b2722"/>
<rect x="394" y="150" width="13" height="13" fill="#2b2722"/>
<rect x="420" y="150" width="13" height="13" fill="#2b2722"/>
<rect x="394" y="163" width="13" height="13" fill="#2b2722"/>
<rect x="433" y="163" width="13" height="13" fill="#2b2722"/>
<rect x="394" y="176" width="13" height="13" fill="#2b2722"/>
<rect x="446" y="176" width="13" height="13" fill="#2b2722"/>
<rect x="82" y="201" width="30" height="8" fill="#1fa39a"/>
<rect x="122" y="201" width="30" height="8" fill="#5fb0e8"/>
<rect x="162" y="201" width="30" height="8" fill="#7b6cf0"/>
<rect x="202" y="201" width="30" height="8" fill="#f2b33d"/>
<rect x="242" y="201" width="30" height="8" fill="#e5604a"/>
<rect x="282" y="201" width="30" height="8" fill="#1fa39a"/>
<rect x="322" y="201" width="30" height="8" fill="#5fb0e8"/>
<rect x="362" y="201" width="30" height="8" fill="#7b6cf0"/>
<rect x="402" y="201" width="30" height="8" fill="#f2b33d"/>
<rect x="442" y="201" width="30" height="8" fill="#e5604a"/>
<rect x="560" y="97" width="12" height="6" fill="#2b2722"/>
<rect x="582" y="97" width="12" height="6" fill="#2b2722"/>
<rect x="604" y="97" width="12" height="6" fill="#2b2722"/>
<rect x="626" y="97" width="12" height="6" fill="#2b2722"/>
<rect x="648" y="97" width="12" height="6" fill="#2b2722"/>
<rect x="670" y="97" width="12" height="6" fill="#2b2722"/>
<rect x="692" y="97" width="12" height="6" fill="#2b2722"/>
<rect x="714" y="97" width="12" height="6" fill="#2b2722"/>
<rect x="736" y="97" width="12" height="6" fill="#2b2722"/>
<rect x="758" y="97" width="12" height="6" fill="#2b2722"/>
<rect x="780" y="97" width="12" height="6" fill="#2b2722"/>
<rect x="802" y="97" width="12" height="6" fill="#2b2722"/>
<rect x="824" y="97" width="12" height="6" fill="#2b2722"/>
<rect x="846" y="97" width="12" height="6" fill="#2b2722"/>
<rect x="868" y="97" width="12" height="6" fill="#2b2722"/>
<rect x="890" y="97" width="12" height="6" fill="#2b2722"/>
<rect x="912" y="97" width="12" height="6" fill="#2b2722"/>
<rect x="934" y="97" width="12" height="6" fill="#2b2722"/>
<rect x="956" y="97" width="12" height="6" fill="#2b2722"/>
<rect x="978" y="97" width="12" height="6" fill="#2b2722"/>
<rect x="560" y="157" width="12" height="6" fill="#2b2722"/>
<rect x="582" y="157" width="12" height="6" fill="#2b2722"/>
<rect x="604" y="157" width="12" height="6" fill="#2b2722"/>
<rect x="626" y="157" width="12" height="6" fill="#2b2722"/>
<rect x="648" y="157" width="12" height="6" fill="#2b2722"/>
<rect x="670" y="157" width="12" height="6" fill="#2b2722"/>
<rect x="692" y="157" width="12" height="6" fill="#2b2722"/>
<rect x="714" y="157" width="12" height="6" fill="#2b2722"/>
<rect x="736" y="157" width="12" height="6" fill="#2b2722"/>
<rect x="758" y="157" width="12" height="6" fill="#2b2722"/>
<rect x="780" y="157" width="12" height="6" fill="#2b2722"/>
<rect x="802" y="157" width="12" height="6" fill="#2b2722"/>
<rect x="824" y="157" width="12" height="6" fill="#2b2722"/>
<rect x="846" y="157" width="12" height="6" fill="#2b2722"/>
<rect x="868" y="157" width="12" height="6" fill="#2b2722"/>
<rect x="890" y="157" width="12" height="6" fill="#2b2722"/>
<rect x="912" y="157" width="12" height="6" fill="#2b2722"/>
<rect x="934" y="157" width="12" height="6" fill="#2b2722"/>
<rect x="956" y="157" width="12" height="6" fill="#2b2722"/>
<rect x="978" y="157" width="12" height="6" fill="#2b2722"/>
<rect x="560" y="217" width="12" height="6" fill="#2b2722"/>
<rect x="582" y="217" width="12" height="6" fill="#2b2722"/>
<rect x="604" y="217" width="12" height="6" fill="#2b2722"/>
<rect x="626" y="217" width="12" height="6" fill="#2b2722"/>
<rect x="648" y="217" width="12" height="6" fill="#2b2722"/>
<rect x="670" y="217" width="12" height="6" fill="#2b2722"/>
<rect x="692" y="217" width="12" height="6" fill="#2b2722"/>
<rect x="714" y="217" width="12" height="6" fill="#2b2722"/>
<rect x="736" y="217" width="12" height="6" fill="#2b2722"/>
<rect x="758" y="217" width="12" height="6" fill="#2b2722"/>
<rect x="780" y="217" width="12" height="6" fill="#2b2722"/>
<rect x="802" y="217" width="12" height="6" fill="#2b2722"/>
<rect x="824" y="217" width="12" height="6" fill="#2b2722"/>
<rect x="846" y="217" width="12" height="6" fill="#2b2722"/>
<rect x="868" y="217" width="12" height="6" fill="#2b2722"/>
<rect x="890" y="217" width="12" height="6" fill="#2b2722"/>
<rect x="912" y="217" width="12" height="6" fill="#2b2722"/>
<rect x="934" y="217" width="12" height="6" fill="#2b2722"/>
<rect x="956" y="217" width="12" height="6" fill="#2b2722"/>
<rect x="978" y="217" width="12" height="6" fill="#2b2722"/>
<rect x="538" y="78" width="44" height="44" fill="#f2b33d"/>
<rect x="548" y="80" width="8" height="8" fill="#2b2722"/>
<rect x="564" y="80" width="8" height="8" fill="#2b2722"/>
<rect x="548" y="88" width="8" height="8" fill="#2b2722"/>
<rect x="564" y="88" width="8" height="8" fill="#2b2722"/>
<rect x="548" y="96" width="8" height="8" fill="#2b2722"/>
<rect x="556" y="96" width="8" height="8" fill="#2b2722"/>
<rect x="564" y="96" width="8" height="8" fill="#2b2722"/>
<rect x="548" y="104" width="8" height="8" fill="#2b2722"/>
<rect x="564" y="104" width="8" height="8" fill="#2b2722"/>
<rect x="548" y="112" width="8" height="8" fill="#2b2722"/>
<rect x="564" y="112" width="8" height="8" fill="#2b2722"/>
<rect x="636" y="96" width="16" height="16" fill="#2b2722"/>
<rect x="640" y="108" width="8" height="52" fill="#2b2722"/>
<rect x="622" y="142" width="36" height="36" fill="#2b2722"/>
<rect x="628" y="148" width="24" height="24" fill="#f1e7d0"/>
<rect x="636" y="142" width="8" height="36" fill="#2b2722"/>
<rect x="622" y="156" width="36" height="8" fill="#2b2722"/>
<rect x="698" y="138" width="44" height="44" fill="#5fb0e8"/>
<rect x="708" y="140" width="8" height="8" fill="#2b2722"/>
<rect x="724" y="140" width="8" height="8" fill="#2b2722"/>
<rect x="708" y="148" width="8" height="8" fill="#2b2722"/>
<rect x="724" y="148" width="8" height="8" fill="#2b2722"/>
<rect x="716" y="156" width="8" height="8" fill="#2b2722"/>
<rect x="708" y="164" width="8" height="8" fill="#2b2722"/>
<rect x="724" y="164" width="8" height="8" fill="#2b2722"/>
<rect x="708" y="172" width="8" height="8" fill="#2b2722"/>
<rect x="724" y="172" width="8" height="8" fill="#2b2722"/>
<rect x="778" y="198" width="44" height="44" fill="#7b6cf0"/>
<rect x="788" y="200" width="8" height="8" fill="#2b2722"/>
<rect x="796" y="200" width="8" height="8" fill="#2b2722"/>
<rect x="804" y="200" width="8" height="8" fill="#2b2722"/>
<rect x="788" y="208" width="8" height="8" fill="#2b2722"/>
<rect x="788" y="216" width="8" height="8" fill="#2b2722"/>
<rect x="796" y="216" width="8" height="8" fill="#2b2722"/>
<rect x="804" y="216" width="8" height="8" fill="#2b2722"/>
<rect x="804" y="224" width="8" height="8" fill="#2b2722"/>
<rect x="788" y="232" width="8" height="8" fill="#2b2722"/>
<rect x="796" y="232" width="8" height="8" fill="#2b2722"/>
<rect x="804" y="232" width="8" height="8" fill="#2b2722"/>
<rect x="858" y="78" width="44" height="44" fill="#e5604a"/>
<rect x="868" y="80" width="8" height="8" fill="#2b2722"/>
<rect x="876" y="80" width="8" height="8" fill="#2b2722"/>
<rect x="884" y="80" width="8" height="8" fill="#2b2722"/>
<rect x="876" y="88" width="8" height="8" fill="#2b2722"/>
<rect x="876" y="96" width="8" height="8" fill="#2b2722"/>
<rect x="876" y="104" width="8" height="8" fill="#2b2722"/>
<rect x="876" y="112" width="8" height="8" fill="#2b2722"/>
<rect x="1004" y="64" width="36" height="180" fill="#2b2722"/>
<rect x="1007" y="67" width="30" height="174" fill="#f1e7d0"/>
<rect x="1010" y="70" width="24" height="12" fill="#1fa39a"/>
<rect x="1010" y="84" width="24" height="12" fill="#5fb0e8"/>
<rect x="1010" y="98" width="24" height="12" fill="#7b6cf0"/>
<rect x="1010" y="112" width="24" height="12" fill="#f2b33d"/>
<rect x="1010" y="126" width="24" height="12" fill="#e5604a"/>
<rect x="1010" y="140" width="24" height="12" fill="#1fa39a"/>
<rect x="1010" y="154" width="24" height="12" fill="#e5604a"/>
<rect x="1010" y="168" width="24" height="12" fill="#7b6cf0"/>
<rect x="1010" y="182" width="24" height="12" fill="#5fb0e8"/>
<rect x="1010" y="196" width="24" height="12" fill="#f2b33d"/>
<rect x="1010" y="210" width="24" height="12" fill="#1fa39a"/>
<rect x="1010" y="224" width="24" height="12" fill="#5fb0e8"/>
<g filter="url(#rough)" stroke="#2b2722" stroke-width="3" fill="none" stroke-linecap="round"><path d="M930 150 C 955 150, 975 150, 998 150"/><path d="M988 142 L 1000 150 L 988 158"/></g>
<text x="600" y="284" text-anchor="middle" font-family="'Courier New',ui-monospace,monospace" font-size="14" letter-spacing="3" fill="#5a4632">qx-quark · vector embeddings for quantum circuits</text>
</svg>